Patient4_TMGait_0pt5_01_left_43_EMG.mot
version=1
nRows=16
nColumns=33
inDegrees=no
endheader
time	1LAddLong	2LGlutMax	3LGlutMed	4LIliopsoas	5LSemiMemb	6LBicFemLong	7LRecFem	8LVastMed	9LVastLat	10LGasMed	11LTibAnt	12lTibPost	13LPeroneusLong	14LSol	15LExtDigLong	16LFlexDigLong	17RAddLong	18RGlutMax	19RGlutMed	20RIliopsoas	21RSemiMemb	22RBicFemLong	23RRecFem	24RVastMed	25RVastLat	26RGasMed	27RTibAnt	28RTibPost	29RPeroneusLong	30RSol	31RExtDigLong	32RFlexDigLong
58.615	0.013275	-0.025482	-0.09964	0.019379	0.012817	-0.052338	-0.082855	0.018616	0.12787	0.007019	0.13779	0.03006	0.10452	0.01358	0.14252	0.006561	-0.009918	-0.036469	0.22964	0.15442	-0.034485	-0.13702	-0.37903	0.46036	-0.19028	-0.045166	0.15457	-0.003357	-0.242	-0.18906	0.002289	-0.012817
58.616	0.01358	-0.020905	-0.11292	0.017853	0.00885	-0.01297	-0.070953	0.022278	0.11108	-0.019684	-0.02243	0.028076	0.12283	-0.007629	-0.033569	-0.001373	0.027771	-0.037079	0.20508	0.12116	-0.062103	-0.14221	-0.12604	0.18814	-0.22675	0.04303	0.066986	-0.007477	0.79804	-0.29694	0.000305	-0.014648
58.617	0.014496	-0.004425	-0.081482	0.000458	0.001984	-0.028229	-0.081787	0.023193	0.11063	-0.017548	-0.069275	0.026245	0.075836	-0.058594	0.23773	-0.008545	0.025177	-0.005493	0.58258	0.10086	-0.040131	-0.028687	-0.06012	-0.10437	-0.12238	0.056152	0.00351	-0.010834	0.27176	-0.21103	0.000763	-0.006714
58.618	0.021057	-0.003052	-0.024872	-0.012207	0.011749	-0.023956	-0.059204	0.018921	0.11185	-0.030518	-0.011444	0.023193	0.006866	-0.099792	0.19516	-0.011749	0.016327	-0.018005	0.24399	0.052338	-0.023499	0.024719	0.054932	-0.24155	-0.035095	0.051422	-0.13046	-0.010681	0.047913	-0.062714	0.005188	-0.009766
58.619	0.006714	-0.016785	0.012054	-0.009155	0.022736	-0.014191	-0.050812	0.014343	0.11017	-0.064087	0.022583	0.023956	-0.009155	-0.12375	0.11795	0.011139	0.014191	-0.018616	0.039978	-0.023804	-0.029297	0.037842	0.30762	-0.20386	0.16647	0.028229	0.12253	-0.013123	-0.2385	0.11093	-0.000916	-0.002747
58.62	0.003662	-0.041199	0.028839	0.002136	0.026245	0.00061	-0.035095	0.015869	0.10742	-0.072327	-0.063782	0.028076	0.004578	-0.023499	0.046997	0.005798	0.007019	-0.12756	-0.51132	-0.1033	-0.0177	0.1181	0.56488	-0.16953	0.26123	0.018005	-0.041046	-0.011749	-1.1662	0.092621	-0.000153	-0.010376
58.621	0.003662	-0.057373	-0.004578	0.005646	-0.030975	0.003052	-0.049133	0.007935	0.10193	-0.11002	-0.084076	0.034637	0.030365	0.023499	-0.005798	0.014038	0.005646	-0.177	-0.50354	-0.060425	-0.006104	0.16113	0.79742	-0.31906	0.15808	0.013123	-0.11704	-0.002594	-0.62775	0.03067	-0.000458	-0.003967
58.622	0.008087	-0.04364	0.013733	0.003815	-0.058289	0.014191	-0.052948	0.005188	0.11063	-0.082245	-0.020599	0.032501	0.054779	0.063782	0.084534	-0.002441	0.017395	-0.19226	-0.49408	-0.035248	-0.003357	0.066681	0.69641	-0.30106	0.071106	0.00351	-0.080261	-0.010529	0.054626	0.024872	0.000305	0.003662
58.623	0.005951	-0.036469	-0.003662	-0.004425	-0.085144	0.015717	-0.048676	0.011597	0.10742	-0.04303	0.002899	0.036926	0.072632	0.066986	0.12161	0.008545	0.002899	-0.17425	0.022125	0.045471	-0.008698	-0.072784	0.42313	-0.14816	-0.001373	0.011139	-0.32944	-0.002289	0.96909	-0.18723	0.000763	-0.011444
58.624	0.010681	-0.031433	-0.037384	0.021973	-0.05661	0.000153	-0.047913	0.014954	0.10422	-0.044861	-0.082397	0.031433	0.068359	0.093689	0.049133	0.003662	0.003052	-0.12894	0.20874	0.036774	-0.037689	-0.070038	0.14725	-0.11932	-0.13779	0.005341	-0.34607	0.000305	1.8423	-0.24033	0.000305	-0.010223
58.625	0.008392	-0.015717	-0.057983	-0.006561	0.030518	-0.025635	-0.058289	0.008087	0.1062	-0.029297	-0.15671	0.031281	0.12299	0.095673	-0.055237	0.01709	-0.005493	-0.070343	0.55161	-0.159	-0.044556	-0.078735	-0.13596	-0.078583	-0.20554	-0.00885	-0.19318	-0.00351	2.1063	-0.045776	0.000305	-0.016327
58.626	0.006104	-0.022125	-0.062256	0.002136	0.024109	-0.06134	-0.066528	0.006866	0.11688	0.024567	-0.15472	0.034027	0.1294	0.054169	0.23086	0.00473	0.01236	-0.071106	-0.088348	-0.15732	-0.043945	-0.12909	-0.084534	-0.23636	-0.38727	-0.009155	0.084076	-0.004272	2.1596	0.16281	-0.001678	-0.012207
58.627	0.007629	-0.005951	-0.055389	0.001221	0.041809	-0.13199	-0.066986	0.011749	0.11231	0.028381	-0.034485	0.031586	0.076752	0.019989	0.13428	0.009155	0.023804	-0.056305	-0.031281	-0.10208	-0.06897	-0.1294	0.050659	-0.35004	-0.4274	0.001373	-0.022278	-0.007019	1.4076	0.1738	0	-0.013123
58.628	0.018768	-0.003967	-0.05188	0.026855	0.03006	-0.15869	-0.054779	0.00351	0.10498	0.033417	0.10742	0.031128	-0.022278	0.018311	-0.18845	0.005493	0.041962	-0.012512	-0.089264	0.059662	-0.056	-0.10529	0.20386	-0.16602	-0.30868	0.007324	-0.009003	-0.002594	-1.0818	-0.032806	-0.00061	-0.003052
58.629	0.016632	0.003052	-0.05722	0.017395	0.01358	-0.12878	-0.078583	0.002747	0.1059	0.029144	0.1767	0.036621	-0.057678	0.010834	-0.29358	0.021515	0.027618	0.025482	-0.16357	0.095062	-0.046234	-0.089569	0.22995	-0.079346	-0.085907	0.008392	0.14603	-0.004578	-1.8364	-0.097504	-0.001526	-0.010223
58.63	0.022736	0.03067	-0.058289	0.018921	0.022278	-0.084229	-0.094604	0.006104	0.10864	0.013885	0.12848	0.033722	-0.024567	-0.009613	-0.25345	0.026093	0.023041	0.070801	0.071106	0.058289	-0.039368	-0.068359	0.29816	-0.061188	0.004578	-0.002441	-0.063324	0.005951	-0.18601	-0.047607	-0.000458	-0.003967
